0
SECTION
2
HEADER
9
$INSUNITS
70
4
9
$ACADVER
1
AC1014
9
$HANDSEED
5
FFFF
0
ENDSEC
0
SECTION
2
TABLES
0
TABLE
2
VPORT
5
8
100
AcDbSymbolTable
0
ENDTAB
0
TABLE
2
LTYPE
5
5
100
AcDbSymbolTable
0
LTYPE
5
14
100
AcDbSymbolTableRecord
100
AcDbLinetypeTableRecord
2
BYBLOCK
70
0
0
LTYPE
5
15
100
AcDbSymbolTableRecord
100
AcDbLinetypeTableRecord
2
BYLAYER
70
0
0
LTYPE
5
16
100
AcDbSymbolTableRecord
100
AcDbLinetypeTableRecord
2
DASHED
70
0
3
Dashed __ __ __ __ __ __ __ __ __ __ __ __ __ _
72
65
73
2
40
0.75
49
0.5
74
0
49
-0.25
74
0
0
ENDTAB
0
TABLE
2
LAYER
5
2
100
AcDbSymbolTable
70
3
0
LAYER
5
50
100
AcDbSymbolTableRecord
100
AcDbLayerTableRecord
2
1
70
0
62
7
6
DASHED
0
LAYER
5
51
100
AcDbSymbolTableRecord
100
AcDbLayerTableRecord
2
0
70
0
62
7
6
CONTINUOUS
0
ENDTAB
0
TABLE
2
STYLE
5
3
100
AcDbSymbolTable
70
1
0
STYLE
5
11
100
AcDbSymbolTableRecord
100
AcDbTextStyleTableRecord
2
STANDARD
70
0
0
ENDTAB
0
TABLE
2
VIEW
5
6
100
AcDbSymbolTable
70
0
0
ENDTAB
0
TABLE
2
UCS
5
7
100
AcDbSymbolTable
70
0
0
ENDTAB
0
TABLE
2
APPID
5
9
100
AcDbSymbolTable
70
2
0
APPID
5
12
100
AcDbSymbolTableRecord
100
AcDbRegAppTableRecord
2
ACAD
70
0
0
ENDTAB
0
TABLE
2
DIMSTYLE
5
A
100
AcDbSymbolTable
70
1
0
ENDTAB
0
TABLE
2
BLOCK_RECORD
5
1
100
AcDbSymbolTable
70
1
0
BLOCK_RECORD
5
1F
100
AcDbSymbolTableRecord
100
AcDbBlockTableRecord
2
*MODEL_SPACE
0
BLOCK_RECORD
5
1B
100
AcDbSymbolTableRecord
100
AcDbBlockTableRecord
2
*PAPER_SPACE
0
ENDTAB
0
ENDSEC
0
SECTION
2
BLOCKS
0
BLOCK
5
20
100
AcDbEntity
100
AcDbBlockBegin
2
*MODEL_SPACE
0
ENDBLK
5
21
100
AcDbEntity
100
AcDbBlockEnd
0
BLOCK
5
1C
100
AcDbEntity
100
AcDbBlockBegin
2
*PAPER_SPACE
0
ENDBLK
5
1D
100
AcDbEntity
100
AcDbBlockEnd
0
ENDSEC
0
SECTION
2
ENTITIES
0
CIRCLE
5
100
100
AcDbEntity
8
0
100
AcDbCircle
10
51.961524227066249
20
-90.000000000000085
30
0
40
7.5999999999999979
210
0
220
0
230
1
0
CIRCLE
5
101
100
AcDbEntity
8
0
100
AcDbCircle
10
90.932667397366032
20
-67.500000000000171
30
0
40
7.5999999999999979
210
0
220
-0
230
1
0
CIRCLE
5
102
100
AcDbEntity
8
0
100
AcDbCircle
10
90.932667397365933
20
-112.50000000000014
30
0
40
7.5999999999999979
210
0
220
0
230
1
0
CIRCLE
5
103
100
AcDbEntity
8
0
100
AcDbCircle
10
-25.980762113533178
20
4.8849813083506888e-14
30
0
40
7.5999999999999996
210
0
220
0
230
1
0
CIRCLE
5
104
100
AcDbEntity
8
0
100
AcDbCircle
10
12.990381056766616
20
22.5
30
0
40
7.5999999999999996
210
0
220
-0
230
1
0
CIRCLE
5
105
100
AcDbEntity
8
0
100
AcDbCircle
10
12.990381056766561
20
-22.500000000000032
30
0
40
7.5999999999999996
210
0
220
0
230
1
0
CIRCLE
5
106
100
AcDbEntity
8
0
100
AcDbCircle
10
127.53842951089919
20
-49.096960169580832
30
0
40
1.6499999999999915
210
0
220
0
230
1
0
CIRCLE
5
107
100
AcDbEntity
8
0
100
AcDbCircle
10
103.92304845413257
20
-90.000000000000142
30
0
40
7.5999999999999979
210
0
220
0
230
1
0
CIRCLE
5
108
100
AcDbEntity
8
0
100
AcDbCircle
10
64.951905283832843
20
-67.500000000000071
30
0
40
7.5999999999999979
210
0
220
0
230
1
0
CIRCLE
5
109
100
AcDbEntity
8
0
100
AcDbCircle
10
67.31728634059948
20
-26.596960169580761
30
0
40
1.6500000000000004
210
0
220
0
230
1
0
CIRCLE
5
110
100
AcDbEntity
8
0
100
AcDbCircle
10
-3.9968028886505635e-14
20
-45.000000000000007
30
0
40
13.5
210
0
220
0
230
1
0
CIRCLE
5
111
100
AcDbEntity
8
0
100
AcDbCircle
10
64.951905283832787
20
-112.50000000000011
30
0
40
7.5999999999999979
210
0
220
0
230
1
0
CIRCLE
5
112
100
AcDbEntity
8
0
100
AcDbCircle
10
38.971143170299605
20
-112.50000000000007
30
0
40
13.5
210
0
220
0
230
1
0
CIRCLE
5
113
100
AcDbEntity
8
0
100
AcDbCircle
10
28.346143170299616
20
-130.9030398304194
30
0
40
1.6500000000000004
210
0
220
0
230
1
0
CIRCLE
5
114
100
AcDbEntity
8
0
100
AcDbCircle
10
88.567286340599338
20
-153.40303983041946
30
0
40
1.6500000000000092
210
0
220
0
230
1
0
CIRCLE
5
115
100
AcDbEntity
8
0
100
AcDbCircle
10
60.221143170299726
20
-22.500000000000064
30
0
40
1.6500000000000004
210
0
220
0
230
1
0
CIRCLE
5
116
100
AcDbEntity
8
0
100
AcDbCircle
10
-12.990381056766614
20
-22.5
30
0
40
7.5999999999999996
210
0
220
0
230
1
0
CIRCLE
5
117
100
AcDbEntity
8
0
100
AcDbCircle
10
77.942286340599452
20
-45.000000000000142
30
0
40
13.499999999999996
210
0
220
0
230
1
0
CIRCLE
5
118
100
AcDbEntity
8
0
100
AcDbCircle
10
17.721143170299662
20
-67.500000000000071
30
0
40
1.6500000000000004
210
0
220
0
230
1
0
CIRCLE
5
119
100
AcDbEntity
8
0
100
AcDbCircle
10
-49.596143170299776
20
-40.903039830419281
30
0
40
1.6500000000000004
210
0
220
0
230
1
0
CIRCLE
5
120
100
AcDbEntity
8
0
100
AcDbCircle
10
-10.624999999999972
20
63.403039830419338
30
0
40
1.6500000000000004
210
0
220
0
230
1
0
CIRCLE
5
121
100
AcDbEntity
8
0
100
AcDbCircle
10
77.942286340599395
20
-90.000000000000142
30
0
40
13.499999999999996
210
0
220
0
230
1
0
CIRCLE
5
122
100
AcDbEntity
8
0
100
AcDbCircle
10
10.624999999999948
20
-63.403039830419338
30
0
40
1.6500000000000004
210
0
220
0
230
1
0
CIRCLE
5
123
100
AcDbEntity
8
0
100
AcDbCircle
10
-38.971143170299761
20
-22.499999999999972
30
0
40
13.5
210
0
220
0
230
1
0
CIRCLE
5
124
100
AcDbEntity
8
0
100
AcDbCircle
10
0
20
0
30
0
40
13.5
210
0
220
0
230
1
0
CIRCLE
5
125
100
AcDbEntity
8
0
100
AcDbCircle
10
49.596143170299754
20
40.90303983041931
30
0
40
1.6500000000000004
210
0
220
0
230
1
0
CIRCLE
5
126
100
AcDbEntity
8
0
100
AcDbCircle
10
-12.990381056766566
20
22.500000000000028
30
0
40
7.6000000000000023
210
0
220
0
230
1
0
CIRCLE
5
127
100
AcDbEntity
8
0
100
AcDbCircle
10
6.2172489379008766e-14
20
45.000000000000007
30
0
40
13.5
210
0
220
0
230
1
0
CIRCLE
5
128
100
AcDbEntity
8
0
100
AcDbCircle
10
-60.221143170299726
20
22.500000000000053
30
0
40
1.6500000000000004
210
0
220
0
230
1
0
CIRCLE
5
129
100
AcDbEntity
8
0
100
AcDbCircle
10
38.971143170299754
20
22.499999999999964
30
0
40
13.5
210
0
220
0
230
1
0
CIRCLE
5
130
100
AcDbEntity
8
0
100
AcDbCircle
10
25.980762113533093
20
-45.000000000000064
30
0
40
7.7000000000000526
210
0
220
0
230
1
0
CIRCLE
5
131
100
AcDbEntity
8
0
100
AcDbCircle
10
25.980762113533174
20
-3.9968028886505635e-14
30
0
40
7.6000000000000023
210
0
220
0
230
1
0
LWPOLYLINE
5
132
100
AcDbEntity
8
0
100
AcDbPolyline
90
4
70
1
43
0.0
10
44.261524227066253
20
-45.000000000000114
42
1.7320508075688776
10
55.811524227066265
20
-38.33160439085998
10
55.761524227066261
20
-38.418206931238373
42
0.57735026918962151
10
44.361524227066262
20
-45.000000000000057
0
CIRCLE
5
133
100
AcDbEntity
8
0
100
AcDbCircle
10
116.91342951089911
20
-112.50000000000017
30
0
40
13.499999999999996
210
0
220
0
230
1
0
CIRCLE
5
134
100
AcDbEntity
8
0
100
AcDbCircle
10
116.91342951089916
20
-67.500000000000185
30
0
40
13.499999999999996
210
0
220
0
230
1
0
CIRCLE
5
135
100
AcDbEntity
8
0
100
AcDbCircle
10
38.971143170299683
20
-67.500000000000099
30
0
40
13.5
210
0
220
0
230
1
0
CIRCLE
5
136
100
AcDbEntity
8
0
100
AcDbCircle
10
77.942286340599352
20
-135.00000000000014
30
0
40
13.500000000000005
210
0
220
0
230
1
0
CIRCLE
5
137
100
AcDbEntity
8
0
100
AcDbCircle
10
38.971143170299726
20
-22.500000000000032
30
0
40
13.5
210
0
220
0
230
1
0
CIRCLE
5
138
100
AcDbEntity
8
0
100
AcDbCircle
10
138.16342951089911
20
-112.50000000000017
30
0
40
1.6500000000000092
210
0
220
0
230
1
0
CIRCLE
5
139
100
AcDbEntity
8
0
100
AcDbCircle
10
-38.971143170299733
20
22.500000000000028
30
0
40
13.500000000000005
210
0
220
0
230
1
0
LWPOLYLINE
5
140
100
AcDbEntity
8
0
100
AcDbPolyline
90
50
70
1
43
0.0
10
83.332667397366123
20
-22.500000000000178
42
0.5773502691896184
10
94.732667397366086
20
-29.081793068761851
10
100.07304845413259
20
-38.331604390859965
42
1.7320508075688847
10
111.62304845413257
20
-45.000000000000107
10
129.90381056766574
20
-45.000000000000142
10
139.09419162443234
20
-60.918206931238508
42
0.57735026918961907
10
139.09419162443237
20
-74.081793068761939
10
133.75381056766574
20
-83.331604390860008
42
1.7320508075688847
10
133.75381056766574
20
-96.668395609140333
10
142.8941916244323
20
-112.50000000000021
10
133.70381056766564
20
-128.41820693123853
42
0.57735026918961818
10
122.30381056766568
20
-135.00000000000026
10
111.62304845413254
20
-135.00000000000014
42
1.7320508075688739
10
100.07304845413252
20
-141.6683956091403
10
90.932667397365904
20
-157.50000000000014
10
72.55190528383271
20
-157.50000000000011
42
0.57735026918961885
10
61.151905283832718
20
-150.91820693123844
10
55.811524227066222
20
-141.6683956091403
42
1.7320508075688696
10
44.261524227066253
20
-135.00000000000009
10
25.980762113532982
20
-135.00000000000003
10
16.790381056766464
20
-119.08179306876177
42
0.57735026918961851
10
16.790381056766428
20
-105.91820693123834
10
22.130762113533066
20
-96.668395609140333
42
1.7320508075688723
10
22.130762113533137
20
-83.331604390859937
10
12.990381056766518
20
-67.500000000000014
10
-5.3903810567667172
20
-67.5
42
0.5773502691896194
10
-16.790381056766645
20
-60.918206931238245
10
-22.130762113533198
20
-51.668395609140191
42
1.7320508075688776
10
-33.680762113533184
20
-44.999999999999986
10
-51.961524227066356
20
-44.999999999999943
10
-61.151905283832953
20
-29.08179306876162
42
0.57735026918961874
10
-61.151905283832932
20
-15.918206931238217
10
-55.811524227066357
20
-6.6683956091401804
42
1.7320508075688767
10
-55.811524227066336
20
6.6683956091401964
10
-64.951905283832886
20
22.500000000000039
10
-55.761524227066282
20
38.418206931238359
42
0.57735026918962185
10
-44.361524227066283
20
45.000000000000085
10
-33.680762113533142
20
45.000000000000028
42
1.7320508075688732
10
-22.130762113533116
20
51.668395609140198
10
-12.990381056766488
20
67.500000000000043
10
5.3903810567667279
20
67.500000000000014
42
0.57735026918962107
10
16.790381056766662
20
60.918206931238281
10
22.130762113533201
20
51.668395609140198
42
1.7320508075688759
10
33.680762113533163
20
44.999999999999986
10
51.961524227066384
20
44.999999999999943
10
61.15190528383296
20
29.081793068761609
42
0.5773502691896184
10
61.151905283832939
20
15.91820693123822
10
55.811524227066336
20
6.6683956091401564
42
1.7320508075688759
10
55.811524227066315
20
-6.6683956091401742
10
64.951905283832886
20
-22.500000000000043
0
ENDSEC
0
SECTION
2
OBJECTS
0
DICTIONARY
5
C
100
AcDbDictionary
3
ACAD_GROUP
350
D
3
ACAD_MLINESTYLE
350
17
0
DICTIONARY
5
D
100
AcDbDictionary
0
DICTIONARY
5
1A
330
C
100
AcDbDictionary
0
DICTIONARY
5
17
100
AcDbDictionary
0
ENDSEC
0
EOF
