0
SECTION
2
HEADER
9
$INSUNITS
70
4
9
$ACADVER
1
AC1014
9
$HANDSEED
5
FFFF
0
ENDSEC
0
SECTION
2
TABLES
0
TABLE
2
VPORT
5
8
100
AcDbSymbolTable
0
ENDTAB
0
TABLE
2
LTYPE
5
5
100
AcDbSymbolTable
0
LTYPE
5
14
100
AcDbSymbolTableRecord
100
AcDbLinetypeTableRecord
2
BYBLOCK
70
0
0
LTYPE
5
15
100
AcDbSymbolTableRecord
100
AcDbLinetypeTableRecord
2
BYLAYER
70
0
0
LTYPE
5
16
100
AcDbSymbolTableRecord
100
AcDbLinetypeTableRecord
2
DASHED
70
0
3
Dashed __ __ __ __ __ __ __ __ __ __ __ __ __ _
72
65
73
2
40
0.75
49
0.5
74
0
49
-0.25
74
0
0
ENDTAB
0
TABLE
2
LAYER
5
2
100
AcDbSymbolTable
70
3
0
LAYER
5
50
100
AcDbSymbolTableRecord
100
AcDbLayerTableRecord
2
1
70
0
62
7
6
DASHED
0
LAYER
5
51
100
AcDbSymbolTableRecord
100
AcDbLayerTableRecord
2
0
70
0
62
7
6
CONTINUOUS
0
ENDTAB
0
TABLE
2
STYLE
5
3
100
AcDbSymbolTable
70
1
0
STYLE
5
11
100
AcDbSymbolTableRecord
100
AcDbTextStyleTableRecord
2
STANDARD
70
0
0
ENDTAB
0
TABLE
2
VIEW
5
6
100
AcDbSymbolTable
70
0
0
ENDTAB
0
TABLE
2
UCS
5
7
100
AcDbSymbolTable
70
0
0
ENDTAB
0
TABLE
2
APPID
5
9
100
AcDbSymbolTable
70
2
0
APPID
5
12
100
AcDbSymbolTableRecord
100
AcDbRegAppTableRecord
2
ACAD
70
0
0
ENDTAB
0
TABLE
2
DIMSTYLE
5
A
100
AcDbSymbolTable
70
1
0
ENDTAB
0
TABLE
2
BLOCK_RECORD
5
1
100
AcDbSymbolTable
70
1
0
BLOCK_RECORD
5
1F
100
AcDbSymbolTableRecord
100
AcDbBlockTableRecord
2
*MODEL_SPACE
0
BLOCK_RECORD
5
1B
100
AcDbSymbolTableRecord
100
AcDbBlockTableRecord
2
*PAPER_SPACE
0
ENDTAB
0
ENDSEC
0
SECTION
2
BLOCKS
0
BLOCK
5
20
100
AcDbEntity
100
AcDbBlockBegin
2
*MODEL_SPACE
0
ENDBLK
5
21
100
AcDbEntity
100
AcDbBlockEnd
0
BLOCK
5
1C
100
AcDbEntity
100
AcDbBlockBegin
2
*PAPER_SPACE
0
ENDBLK
5
1D
100
AcDbEntity
100
AcDbBlockEnd
0
ENDSEC
0
SECTION
2
ENTITIES
0
CIRCLE
5
100
100
AcDbEntity
8
0
100
AcDbCircle
10
-38.971143170299889
20
-112.5
30
0
40
13.500000000000005
210
0
220
0
230
1
0
CIRCLE
5
101
100
AcDbEntity
8
0
100
AcDbCircle
10
21.249999999999829
20
-135.00000000000006
30
0
40
1.6500000000000004
210
0
220
0
230
1
0
CIRCLE
5
102
100
AcDbEntity
8
0
100
AcDbCircle
10
10.624999999999911
20
-71.59696016958074
30
0
40
1.6500000000000004
210
0
220
0
230
1
0
CIRCLE
5
103
100
AcDbEntity
8
0
100
AcDbCircle
10
-28.346143170299968
20
-175.90303983041935
30
0
40
1.6500000000000004
210
0
220
0
230
1
0
CIRCLE
5
104
100
AcDbEntity
8
0
100
AcDbCircle
10
-99.192286340599651
20
-134.99999999999994
30
0
40
1.6499999999999915
210
0
220
0
230
1
0
CIRCLE
5
105
100
AcDbEntity
8
0
100
AcDbCircle
10
10.624999999999805
20
-153.40303983041937
30
0
40
1.6500000000000004
210
0
220
0
230
1
0
CIRCLE
5
106
100
AcDbEntity
8
0
100
AcDbCircle
10
-88.567286340599694
20
-153.40303983041929
30
0
40
1.6499999999999915
210
0
220
0
230
1
0
CIRCLE
5
107
100
AcDbEntity
8
0
100
AcDbCircle
10
-99.192286340599622
20
-89.999999999999943
30
0
40
1.6499999999999915
210
0
220
0
230
1
0
CIRCLE
5
108
100
AcDbEntity
8
0
100
AcDbCircle
10
-25.98076211353326
20
-90.000000000000014
30
0
40
7.6000000000000023
210
0
220
0
230
1
0
CIRCLE
5
109
100
AcDbEntity
8
0
100
AcDbCircle
10
-49.596143170299953
20
-175.90303983041932
30
0
40
1.6500000000000004
210
0
220
0
230
1
0
CIRCLE
5
110
100
AcDbEntity
8
0
100
AcDbCircle
10
-49.596143170299847
20
-49.096960169580655
30
0
40
1.6500000000000004
210
0
220
0
230
1
0
CIRCLE
5
111
100
AcDbEntity
8
0
100
AcDbCircle
10
-64.951905283833071
20
-112.49999999999997
30
0
40
7.5999999999999979
210
0
220
0
230
1
0
CIRCLE
5
112
100
AcDbEntity
8
0
100
AcDbCircle
10
-25.980762113533338
20
-135.00000000000003
30
0
40
7.5999999999999979
210
0
220
0
230
1
0
CIRCLE
5
113
100
AcDbEntity
8
0
100
AcDbCircle
10
-77.942286340599608
20
-89.999999999999929
30
0
40
13.499999999999996
210
0
220
0
230
1
0
CIRCLE
5
114
100
AcDbEntity
8
0
100
AcDbCircle
10
-38.971143170299833
20
-67.5
30
0
40
13.5
210
0
220
0
230
1
0
CIRCLE
5
115
100
AcDbEntity
8
0
100
AcDbCircle
10
-38.971143170299946
20
-157.5
30
0
40
13.500000000000005
210
0
220
0
230
1
0
CIRCLE
5
116
100
AcDbEntity
8
0
100
AcDbCircle
10
-77.942286340599651
20
-134.99999999999997
30
0
40
13.500000000000014
210
0
220
0
230
1
0
ARC
5
117
100
AcDbEntity
8
0
100
AcDbCircle
10
-64.951905283833014
20
-22.499999999999911
30
0
40
7.6000000000000032
210
-0
220
0
230
1
100
AcDbArc
50
-59.999999999999524
51
59.999999999999929
0
LINE
5
118
100
AcDbEntity
8
0
100
AcDbLine
10
-61.151905283832953
20
-29.08179306876162
30
0
11
-51.961524227066356
21
-44.999999999999972
31
0
0
LINE
5
119
100
AcDbEntity
8
0
100
AcDbLine
10
-55.811524227066343
20
-6.6683956091401795
30
0
11
-61.151905283833003
21
-15.918206931238178
31
0
0
LWPOLYLINE
5
120
100
AcDbEntity
8
0
100
AcDbPolyline
90
4
70
1
43
0.0
10
55.761524227066261
20
-38.418206931238373
42
0.57735026918962329
10
44.361524227066297
20
-45.000000000000142
10
44.261524227066253
20
-45.000000000000114
42
1.732050807568883
10
55.811524227066272
20
-38.33160439085998
0
CIRCLE
5
121
100
AcDbEntity
8
0
100
AcDbCircle
10
-1.7319479184152442e-13
20
-135.00000000000006
30
0
40
13.5
210
0
220
0
230
1
0
CIRCLE
5
122
100
AcDbEntity
8
0
100
AcDbCircle
10
25.980762113533093
20
-45.000000000000064
30
0
40
7.7000000000000526
210
0
220
0
230
1
0
ARC
5
123
100
AcDbEntity
8
0
100
AcDbCircle
10
-90.932667397366203
20
-67.499999999999858
30
0
40
7.6000000000000174
210
0
220
0
230
1
100
AcDbArc
50
240.00000000000074
51
360
0
LINE
5
124
100
AcDbEntity
8
0
100
AcDbLine
10
-94.732667397366129
20
-74.081793068761655
30
0
11
-103.92304845413277
21
-89.999999999999858
31
0
0
LINE
5
125
100
AcDbEntity
8
0
100
AcDbLine
10
-72.651905283833074
20
-67.499999999999972
30
0
11
-83.33266739736618
21
-67.499999999999872
31
0
0
LINE
5
126
100
AcDbEntity
8
0
100
AcDbLine
10
-51.961524227066356
20
-44.999999999999972
30
0
11
-61.101905283833069
21
-60.831604390859837
31
0
0
ARC
5
127
100
AcDbEntity
8
0
100
AcDbCircle
10
-64.951905283833028
20
-67.5
30
0
40
7.7000000000000401
210
0
220
0
230
1
100
AcDbArc
50
-180
51
60.000000000000213
0
ARC
5
128
100
AcDbEntity
8
0
100
AcDbCircle
10
90.932667397366131
20
-22.500000000000121
30
0
40
7.5999999999999801
210
0
220
0
230
1
100
AcDbArc
50
180
51
299.99999999999994
0
LINE
5
129
100
AcDbEntity
8
0
100
AcDbLine
10
83.332667397366151
20
-22.500000000000171
30
0
11
64.951905283832886
21
-22.500000000000053
31
0
0
ARC
5
130
100
AcDbEntity
8
0
100
AcDbCircle
10
64.951905283833028
20
22.499999999999901
30
0
40
7.6000000000000076
210
0
220
0
230
1
100
AcDbArc
50
120.00000000000055
51
239.99999999999989
0
LINE
5
131
100
AcDbEntity
8
0
100
AcDbLine
10
61.15190528383296
20
29.081793068761609
30
0
11
51.961524227066391
21
44.999999999999943
31
0
0
LINE
5
132
100
AcDbEntity
8
0
100
AcDbLine
10
55.811524227066336
20
6.6683956091401537
30
0
11
61.15190528383301
21
15.918206931238165
31
0
0
LWPOLYLINE
5
133
100
AcDbEntity
8
0
100
AcDbPolyline
90
4
70
1
43
0.0
10
22.180762113533042
20
-83.418206931238387
42
0.57735026918962384
10
22.180762113533117
20
-96.581793068761854
10
22.130762113533066
20
-96.668395609140333
42
1.7320508075688812
10
22.130762113533095
20
-83.33160439085998
0
CIRCLE
5
134
100
AcDbEntity
8
0
100
AcDbCircle
10
-1.2434497875801753e-13
20
-90.000000000000028
30
0
40
13.5
210
0
220
0
230
1
0
LWPOLYLINE
5
135
100
AcDbEntity
8
0
100
AcDbPolyline
90
4
70
1
43
0.0
10
16.790381056766435
20
-119.08179306876178
42
0.57735026918962218
10
16.790381056766378
20
-105.91820693123833
10
16.840381056766415
20
-105.83160439085985
42
1.732050807568883
10
16.840381056766372
20
-119.16839560914021
0
ARC
5
136
100
AcDbEntity
8
0
100
AcDbCircle
10
-51.96152422706632
20
45.000000000000114
30
0
40
7.599999999999997
210
0
220
0
230
1
100
AcDbArc
50
-119.99999999999966
51
0
0
LINE
5
137
100
AcDbEntity
8
0
100
AcDbLine
10
-55.761524227066275
20
38.418206931238359
30
0
11
-64.9519052838329
21
22.50000000000005
31
0
0
LINE
5
138
100
AcDbEntity
8
0
100
AcDbLine
10
-33.680762113533142
20
45.000000000000064
30
0
11
-44.361524227066326
21
45.000000000000128
31
0
0
CIRCLE
5
139
100
AcDbEntity
8
0
100
AcDbCircle
10
-25.980762113533231
20
-44.999999999999972
30
0
40
7.7000000000000526
210
0
220
0
230
1
0
LINE
5
140
100
AcDbEntity
8
0
100
AcDbLine
10
129.90381056766574
20
-45.000000000000171
30
0
11
111.62304845413257
21
-45.000000000000178
31
0
0
ARC
5
141
100
AcDbEntity
8
0
100
AcDbCircle
10
103.92304845413258
20
-45.000000000000206
30
0
40
7.7000000000000499
210
0
220
0
230
1
100
AcDbArc
50
-240.00000000000023
51
0
0
LINE
5
142
100
AcDbEntity
8
0
100
AcDbLine
10
100.07304845413259
20
-38.331604390859965
30
0
11
94.732667397366129
21
-29.081793068761847
31
0
0
ARC
5
143
100
AcDbEntity
8
0
100
AcDbCircle
10
12.990381056766731
20
67.500000000000057
30
0
40
7.6000000000000032
210
0
220
0
230
1
100
AcDbArc
50
180
51
299.99999999999994
0
LINE
5
144
100
AcDbEntity
8
0
100
AcDbLine
10
5.3903810567667279
20
67.5
30
0
11
-12.990381056766482
21
67.500000000000057
31
0
0
LINE
5
145
100
AcDbEntity
8
0
100
AcDbLine
10
22.130762113533201
20
51.668395609140191
30
0
11
16.79038105676673
21
60.918206931238316
31
0
0
LWPOLYLINE
5
146
100
AcDbEntity
8
0
100
AcDbPolyline
90
4
70
1
43
0.0
10
-5.3903810567667172
20
-67.5
42
0.57735026918962329
10
-16.790381056766723
20
-60.918206931238316
10
-16.84038105676672
20
-60.831604390859823
42
1.732050807568883
10
-5.2903810567667522
20
-67.500000000000028
0
CIRCLE
5
147
100
AcDbEntity
8
0
100
AcDbCircle
10
49.596143170299754
20
40.90303983041931
30
0
40
1.6500000000000004
210
0
220
0
230
1
0
CIRCLE
5
148
100
AcDbEntity
8
0
100
AcDbCircle
10
-10.624999999999972
20
63.403039830419338
30
0
40
1.6500000000000004
210
0
220
0
230
1
0
CIRCLE
5
149
100
AcDbEntity
8
0
100
AcDbCircle
10
-60.221143170299726
20
22.500000000000053
30
0
40
1.6500000000000004
210
0
220
0
230
1
0
CIRCLE
5
150
100
AcDbEntity
8
0
100
AcDbCircle
10
-49.596143170299776
20
-40.903039830419281
30
0
40
1.6500000000000004
210
0
220
0
230
1
0
CIRCLE
5
151
100
AcDbEntity
8
0
100
AcDbCircle
10
10.624999999999948
20
-63.403039830419338
30
0
40
1.6500000000000004
210
0
220
0
230
1
0
CIRCLE
5
152
100
AcDbEntity
8
0
100
AcDbCircle
10
60.221143170299726
20
-22.500000000000064
30
0
40
1.6500000000000004
210
0
220
0
230
1
0
CIRCLE
5
153
100
AcDbEntity
8
0
100
AcDbCircle
10
25.980762113533174
20
-3.9968028886505635e-14
30
0
40
7.6000000000000023
210
0
220
0
230
1
0
CIRCLE
5
154
100
AcDbEntity
8
0
100
AcDbCircle
10
-12.990381056766614
20
-22.5
30
0
40
7.5999999999999996
210
0
220
0
230
1
0
CIRCLE
5
155
100
AcDbEntity
8
0
100
AcDbCircle
10
-12.990381056766566
20
22.500000000000028
30
0
40
7.6000000000000023
210
0
220
0
230
1
0
CIRCLE
5
156
100
AcDbEntity
8
0
100
AcDbCircle
10
38.971143170299754
20
22.499999999999964
30
0
40
13.5
210
0
220
0
230
1
0
CIRCLE
5
157
100
AcDbEntity
8
0
100
AcDbCircle
10
-38.971143170299733
20
22.500000000000028
30
0
40
13.500000000000005
210
0
220
0
230
1
0
CIRCLE
5
158
100
AcDbEntity
8
0
100
AcDbCircle
10
6.2172489379008766e-14
20
45.000000000000007
30
0
40
13.5
210
0
220
0
230
1
0
CIRCLE
5
159
100
AcDbEntity
8
0
100
AcDbCircle
10
-3.9968028886505635e-14
20
-45.000000000000007
30
0
40
13.5
210
0
220
0
230
1
0
CIRCLE
5
160
100
AcDbEntity
8
0
100
AcDbCircle
10
0
20
0
30
0
40
13.5
210
0
220
0
230
1
0
CIRCLE
5
161
100
AcDbEntity
8
0
100
AcDbCircle
10
-38.971143170299761
20
-22.499999999999972
30
0
40
13.5
210
0
220
0
230
1
0
CIRCLE
5
162
100
AcDbEntity
8
0
100
AcDbCircle
10
38.971143170299726
20
-22.500000000000032
30
0
40
13.5
210
0
220
0
230
1
0
CIRCLE
5
163
100
AcDbEntity
8
0
100
AcDbCircle
10
88.56728634059931
20
-153.40303983041949
30
0
40
1.6499999999999915
210
0
220
0
230
1
0
CIRCLE
5
164
100
AcDbEntity
8
0
100
AcDbCircle
10
38.971143170299683
20
-67.500000000000099
30
0
40
13.5
210
0
220
0
230
1
0
CIRCLE
5
165
100
AcDbEntity
8
0
100
AcDbCircle
10
17.721143170299669
20
-67.500000000000114
30
0
40
1.6500000000000004
210
0
220
0
230
1
0
CIRCLE
5
166
100
AcDbEntity
8
0
100
AcDbCircle
10
28.346143170299605
20
-130.9030398304194
30
0
40
1.6500000000000004
210
0
220
0
230
1
0
CIRCLE
5
167
100
AcDbEntity
8
0
100
AcDbCircle
10
103.92304845413257
20
-90.000000000000171
30
0
40
7.5999999999999979
210
0
220
0
230
1
0
CIRCLE
5
168
100
AcDbEntity
8
0
100
AcDbCircle
10
67.317286340599324
20
-153.40303983041946
30
0
40
1.6500000000000004
210
0
220
0
230
1
0
CIRCLE
5
169
100
AcDbEntity
8
0
100
AcDbCircle
10
38.971143170299605
20
-112.50000000000007
30
0
40
13.5
210
0
220
0
230
1
0
CIRCLE
5
170
100
AcDbEntity
8
0
100
AcDbCircle
10
116.91342951089916
20
-67.500000000000185
30
0
40
13.499999999999996
210
0
220
0
230
1
0
CIRCLE
5
171
100
AcDbEntity
8
0
100
AcDbCircle
10
77.942286340599395
20
-90.000000000000142
30
0
40
13.499999999999996
210
0
220
0
230
1
0
CIRCLE
5
172
100
AcDbEntity
8
0
100
AcDbCircle
10
64.951905283832772
20
-112.50000000000014
30
0
40
7.5999999999999979
210
0
220
0
230
1
0
CIRCLE
5
173
100
AcDbEntity
8
0
100
AcDbCircle
10
116.91342951089911
20
-112.50000000000017
30
0
40
13.499999999999996
210
0
220
0
230
1
0
CIRCLE
5
174
100
AcDbEntity
8
0
100
AcDbCircle
10
64.951905283832843
20
-67.500000000000114
30
0
40
7.5999999999999979
210
0
220
0
230
1
0
CIRCLE
5
175
100
AcDbEntity
8
0
100
AcDbCircle
10
138.16342951089916
20
-67.500000000000213
30
0
40
1.6499999999999915
210
0
220
0
230
1
0
CIRCLE
5
176
100
AcDbEntity
8
0
100
AcDbCircle
10
67.31728634059948
20
-26.596960169580797
30
0
40
1.6500000000000004
210
0
220
0
230
1
0
CIRCLE
5
177
100
AcDbEntity
8
0
100
AcDbCircle
10
127.53842951089919
20
-49.096960169580875
30
0
40
1.6499999999999915
210
0
220
0
230
1
0
CIRCLE
5
178
100
AcDbEntity
8
0
100
AcDbCircle
10
138.16342951089911
20
-112.50000000000021
30
0
40
1.6499999999999915
210
0
220
0
230
1
0
CIRCLE
5
179
100
AcDbEntity
8
0
100
AcDbCircle
10
77.942286340599352
20
-135.00000000000014
30
0
40
13.500000000000005
210
0
220
0
230
1
0
CIRCLE
5
180
100
AcDbEntity
8
0
100
AcDbCircle
10
127.53842951089909
20
-130.90303983041952
30
0
40
1.6500000000000092
210
0
220
0
230
1
0
CIRCLE
5
181
100
AcDbEntity
8
0
100
AcDbCircle
10
77.942286340599452
20
-45.000000000000142
30
0
40
13.499999999999996
210
0
220
0
230
1
0
LINE
5
182
100
AcDbEntity
8
0
100
AcDbLine
10
-103.92304845413277
20
-89.999999999999858
30
0
11
-94.782667397366197
21
-105.83160439085981
31
0
0
LINE
5
183
100
AcDbEntity
8
0
100
AcDbLine
10
-94.782667397366225
20
-119.16839560914013
30
0
11
-103.92304845413281
21
-134.99999999999994
31
0
0
LINE
5
184
100
AcDbEntity
8
0
100
AcDbLine
10
-103.92304845413281
20
-134.99999999999994
30
0
11
-90.932667397366274
21
-157.49999999999994
31
0
0
LINE
5
185
100
AcDbEntity
8
0
100
AcDbLine
10
-90.932667397366274
20
-157.49999999999994
30
0
11
-72.651905283833102
21
-157.49999999999994
31
0
0
LINE
5
186
100
AcDbEntity
8
0
100
AcDbLine
10
-61.101905283833119
20
-164.16839560914013
30
0
11
-51.961524227066548
21
-180
31
0
0
LINE
5
187
100
AcDbEntity
8
0
100
AcDbLine
10
-51.961524227066548
20
-180
30
0
11
-25.980762113533409
21
-180.00000000000003
31
0
0
LINE
5
188
100
AcDbEntity
8
0
100
AcDbLine
10
-25.980762113533409
20
-180.00000000000003
30
0
11
-16.840381056766802
21
-164.16839560914016
31
0
0
LINE
5
189
100
AcDbEntity
8
0
100
AcDbLine
10
-5.2903810567667726
20
-157.50000000000003
30
0
11
12.990381056766376
21
-157.50000000000006
31
0
0
LINE
5
190
100
AcDbEntity
8
0
100
AcDbLine
10
12.990381056766376
20
-157.50000000000006
30
0
11
25.980762113532968
21
-135.00000000000006
31
0
0
LINE
5
191
100
AcDbEntity
8
0
100
AcDbLine
10
25.980762113532968
20
-135.00000000000006
30
0
11
44.261524227066253
21
-135.00000000000011
31
0
0
LINE
5
192
100
AcDbEntity
8
0
100
AcDbLine
10
55.811524227066215
20
-141.6683956091403
30
0
11
64.951905283832744
21
-157.50000000000011
31
0
0
LINE
5
193
100
AcDbEntity
8
0
100
AcDbLine
10
64.951905283832744
20
-157.50000000000011
30
0
11
90.93266739736589
21
-157.50000000000017
31
0
0
LINE
5
194
100
AcDbEntity
8
0
100
AcDbLine
10
90.93266739736589
20
-157.50000000000017
30
0
11
100.07304845413252
21
-141.6683956091403
31
0
0
LINE
5
195
100
AcDbEntity
8
0
100
AcDbLine
10
111.62304845413254
20
-135.00000000000017
30
0
11
129.90381056766566
21
-135.00000000000023
31
0
0
LINE
5
196
100
AcDbEntity
8
0
100
AcDbLine
10
129.90381056766566
20
-135.00000000000023
30
0
11
142.89419162443227
21
-112.50000000000026
31
0
0
LINE
5
197
100
AcDbEntity
8
0
100
AcDbLine
10
142.89419162443227
20
-112.50000000000026
30
0
11
133.75381056766571
21
-96.668395609140347
31
0
0
LINE
5
198
100
AcDbEntity
8
0
100
AcDbLine
10
133.75381056766574
20
-83.331604390859994
30
0
11
142.89419162443232
21
-67.500000000000227
31
0
0
LINE
5
199
100
AcDbEntity
8
0
100
AcDbLine
10
142.89419162443232
20
-67.500000000000227
30
0
11
129.90381056766574
21
-45.000000000000171
31
0
0
LINE
5
200
100
AcDbEntity
8
0
100
AcDbLine
10
-12.990381056766482
20
67.500000000000057
30
0
11
-22.130762113533052
21
51.668395609140276
31
0
0
ARC
5
201
100
AcDbEntity
8
0
100
AcDbCircle
10
-25.980762113533086
20
45.000000000000064
30
0
40
7.7000000000000579
210
0
220
0
230
1
100
AcDbArc
50
-180
51
59.999999999999922
0
LINE
5
202
100
AcDbEntity
8
0
100
AcDbLine
10
-64.9519052838329
20
22.50000000000005
30
0
11
-55.811524227066357
21
6.6683956091402719
31
0
0
ARC
5
203
100
AcDbEntity
8
0
100
AcDbCircle
10
-51.961524227066334
20
5.2180482157382357e-14
30
0
40
7.7000000000000499
210
0
220
0
230
1
100
AcDbArc
50
-119.99999999999986
51
119.99999999999999
0
ARC
5
204
100
AcDbEntity
8
0
100
AcDbCircle
10
-90.932667397366217
20
-112.49999999999999
30
0
40
7.6999999999999771
210
0
220
0
230
1
100
AcDbArc
50
-120.00000000000017
51
119.99999999999989
0
ARC
5
205
100
AcDbEntity
8
0
100
AcDbCircle
10
-64.951905283833099
20
-157.49999999999997
30
0
40
7.6999999999999877
210
-0
220
0
230
1
100
AcDbArc
50
-60.000000000000085
51
180
0
ARC
5
206
100
AcDbEntity
8
0
100
AcDbCircle
10
-12.990381056766779
20
-157.50000000000003
30
0
40
7.7000000000000064
210
0
220
0
230
1
100
AcDbArc
50
0
51
239.99999999999969
0
ARC
5
207
100
AcDbEntity
8
0
100
AcDbCircle
10
51.961524227066235
20
-135.00000000000014
30
0
40
7.6999999999999682
210
-0
220
0
230
1
100
AcDbArc
50
-60.000000000000085
51
180
0
ARC
5
208
100
AcDbEntity
8
0
100
AcDbCircle
10
103.92304845413256
20
-135.00000000000017
30
0
40
7.6999999999999957
210
0
220
0
230
1
100
AcDbArc
50
0
51
239.99999999999963
0
ARC
5
209
100
AcDbEntity
8
0
100
AcDbCircle
10
129.90381056766572
20
-90.000000000000156
30
0
40
7.7000000000000099
210
0
220
-0
230
1
100
AcDbArc
50
59.999999999999794
51
299.99999999999994
0
LINE
5
210
100
AcDbEntity
8
0
100
AcDbLine
10
64.951905283832886
20
-22.500000000000053
30
0
11
55.811524227066364
21
-6.6683956091402985
31
0
0
ARC
5
211
100
AcDbEntity
8
0
100
AcDbCircle
10
51.961524227066334
20
-8.3821838359199319e-14
30
0
40
7.7000000000000508
210
0
220
-0
230
1
100
AcDbArc
50
60.000000000000213
51
300.00000000000006
0
LINE
5
212
100
AcDbEntity
8
0
100
AcDbLine
10
51.961524227066391
20
44.999999999999943
30
0
11
33.680762113533291
21
44.999999999999986
31
0
0
ARC
5
213
100
AcDbEntity
8
0
100
AcDbCircle
10
25.980762113533235
20
44.999999999999972
30
0
40
7.7000000000000481
210
0
220
0
230
1
100
AcDbArc
50
-239.99999999999994
51
0
0
ENDSEC
0
SECTION
2
OBJECTS
0
DICTIONARY
5
C
100
AcDbDictionary
3
ACAD_GROUP
350
D
3
ACAD_MLINESTYLE
350
17
0
DICTIONARY
5
D
100
AcDbDictionary
0
DICTIONARY
5
1A
330
C
100
AcDbDictionary
0
DICTIONARY
5
17
100
AcDbDictionary
0
ENDSEC
0
EOF
